<svg xmlns="http://www.w3.org/2000/svg" width="22" height="22" viewBox="0 0 22 22"><defs><style>.a{fill:#304de5;}</style></defs><g transform="translate(0 -0.005)"><g transform="translate(2.32 0.005)"><g transform="translate(0 0)"><path class="a" d="M57,3.083H56.22c.118-.871.6-.914.821-.935a.43.43,0,0,0,.391-.428V.434a.43.43,0,0,0-.454-.429C55.619.082,54,.768,54,3.6V5.837a.678.678,0,0,0,.677.677H57a.678.678,0,0,0,.677-.677V3.76A.678.678,0,0,0,57,3.083Zm-.182,2.572h-1.96V3.6c0-1.977.879-2.529,1.712-2.685v.452c-.575.175-1.238.692-1.238,2.145a.43.43,0,0,0,.43.43h1.055Z" transform="translate(-54 -0.005)"/></g></g><g transform="translate(6.713 0.005)"><g transform="translate(0 0)"><path class="a" d="M159.236,3.083h-.782c.118-.871.6-.914.821-.935a.43.43,0,0,0,.391-.428V.434a.43.43,0,0,0-.454-.429c-1.358.076-2.977.762-2.977,3.6V5.837a.678.678,0,0,0,.677.677h2.325a.678.678,0,0,0,.677-.677V3.76A.678.678,0,0,0,159.236,3.083Zm-.182,2.572h-1.96V3.6c0-1.977.879-2.529,1.712-2.685v.452c-.575.175-1.238.692-1.238,2.145a.43.43,0,0,0,.43.43h1.055Z" transform="translate(-156.234 -0.005)"/></g></g><g transform="translate(11.516 3.35)"><path class="a" d="M268.733,77.991a.43.43,0,1,0,.126.3A.433.433,0,0,0,268.733,77.991Z" transform="translate(-268 -77.865)"/></g><g transform="translate(0 3.35)"><path class="a" d="M14.363,77.864h-.541a.43.43,0,1,0,0,.859h.541a6.778,6.778,0,0,1,1.4,13.411.43.43,0,0,0-.341.421v2.5L12.774,92.4a.43.43,0,0,0-.3-.126H7.637A6.78,6.78,0,0,1,1.71,82.212a.43.43,0,1,0-.751-.418A7.639,7.639,0,0,0,7.637,93.138h4.655l3.254,3.254a.43.43,0,0,0,.734-.3V92.9a7.638,7.638,0,0,0-1.916-15.031Z" transform="translate(0 -77.864)"/></g><g transform="translate(5.283 7.631)"><path class="a" d="M133.943,177.492H123.367a.43.43,0,0,0,0,.859h10.576a.43.43,0,1,0,0-.859Z" transform="translate(-122.937 -177.492)"/></g><g transform="translate(5.283 9.923)"><path class="a" d="M133.943,230.825H123.367a.43.43,0,1,0,0,.859h10.576a.43.43,0,1,0,0-.859Z" transform="translate(-122.937 -230.825)"/></g><g transform="translate(5.283 12.215)"><path class="a" d="M133.943,284.158H123.367a.43.43,0,1,0,0,.859h10.576a.43.43,0,1,0,0-.859Z" transform="translate(-122.937 -284.158)"/></g><g transform="translate(10.221 14.507)"><path class="a" d="M243.938,337.492H238.3a.43.43,0,0,0,0,.859h5.637a.43.43,0,0,0,0-.859Z" transform="translate(-237.871 -337.492)"/></g><g transform="translate(7.797 14.506)"><path class="a" d="M181.883,337.491h-.007a.43.43,0,0,0,0,.859h.007a.43.43,0,0,0,0-.859Z" transform="translate(-181.446 -337.491)"/></g></g></svg>